<?xml version="1.0" encoding="UTF-8"?><svg id="Layer_1" xmlns="http://www.w3.org/2000/svg" width="400" height="331" viewBox="0 0 400 331"><defs><style>.cls-1,.cls-2{fill:#fff;}.cls-3{stroke:#ffc226;stroke-miterlimit:10;stroke-width:1.71px;}.cls-3,.cls-4{fill:none;}.cls-5{fill:#ffc226;}.cls-2{font-family:Bahnschrift-SemiBold, Bahnschrift;font-size:26px;font-variation-settings:'wght' 600, 'wdth' 100;font-weight:600;letter-spacing:.01em;}.cls-6{fill:#e19717;}.cls-7{fill:#010101;}</style></defs><g id="Badge"><path class="cls-7" d="m342.15,232.29V98.71c0-9.52-5.08-18.32-13.33-23.08L213.13,8.84c-8.25-4.76-18.41-4.76-26.65,0l-115.69,66.79c-8.25,4.76-13.33,13.56-13.33,23.08v133.58c0,9.52,5.08,18.32,13.33,23.08l115.69,66.79c8.25,4.76,18.41,4.76,26.65,0l115.69-66.79c8.25-4.76,13.33-13.56,13.33-23.08Z"/><path class="cls-5" d="m336.61,229.85V101.37c0-9.16-4.89-17.62-12.82-22.2L212.53,14.93c-7.93-4.58-17.7-4.58-25.63,0l-111.27,64.24c-7.93,4.58-12.82,13.04-12.82,22.2v128.48c0,9.16,4.89,17.62,12.82,22.2l111.27,64.24c7.93,4.58,17.7,4.58,25.63,0l111.27-64.24c7.93-4.58,12.82-13.04,12.82-22.2Z"/><path class="cls-7" d="m331.15,227.09v-123.41c0-8.8-4.69-16.93-12.31-21.32l-106.88-61.71c-7.62-4.4-17-4.4-24.62,0l-106.88,61.71c-7.62,4.4-12.31,12.53-12.31,21.32v123.41c0,8.8,4.69,16.93,12.31,21.32l106.88,61.71c7.62,4.4,17,4.4,24.62,0l106.88-61.71c7.62-4.4,12.31-12.53,12.31-21.32Z"/></g><g id="BARE"><path class="cls-7" d="m230.67,142.72s1.03-5.66,8.57-7.3c0,0-7.22,3.83-6.77,8.23"/><path class="cls-6" d="m256.95,111.16c-.59-1.94-1.36-2.66-3-3.06-.42-.1-.85-.21-1.29-.35-2.52-.82-9.39-6.15-11.32-7.35-1.49-.93-3-2.06-4.51-3.36-.85-.74-1.87-1.1-2.23-1.03-.31.11-1.41,1.06-2.31,2.02l-2.57,3.64-1.51,2.49c-.78,1.31-.98,2.86-.57,4.3,2.43,1.91,10.21,8.88,11.41,9.12,1.54.31,2.7,1.04,3.45,2.15,1.08,1.6,1.25,3.95.51,7.01-.63,2.59.12,3.32,2.16,4.09h0c5.1,1.91,8.6-2.72,11.08-6.97.16-.28.3-.52.42-.71,1.24-2.01,1.2-4.14,1.19-4.37-.02-.4-.21-2.35-.35-3.37l-.56-4.22Z"/><path class="cls-4" d="m245.88,130.53c4.56,1.81,7.69-2.6,9.91-6.65.15-.27.27-.49.38-.68,1.11-1.91,1.07-3.94,1.06-4.16-.01-.38-.19-2.24-.31-3.21-.04-.35-.06-.65-.08-.97-.04-.67-.09-1.44-.42-3.05-.48-2.34-1.21-2.53-2.68-2.91-.37-.1-.76-.2-1.16-.34-2.25-.78-8.39-5.84-10.11-6.99-1.33-.88-2.68-1.96-4.03-3.2-.76-.7-1.67-1.05-2-.98-.28.11-1.26,1.01-2.07,1.93l-2.3,3.46-1.35,2.37c-.7,1.24-.88,2.72-.51,4.09,2.17,1.82,8.43,8.2,9.51,8.43,1.37.3,2.49,1.3,3.16,2.36.97,1.52,1.74,3.69,1.07,6.6-.57,2.46.11,3.16,1.93,3.89h0Z"/><path class="cls-5" d="m283.91,137.83c-1.85-.91-19.41-1.39-21.32-1.57-7.35-.69-21.46,3.73-22.05-1.94-.76-7.19-9.8-3.78-10.6-8.19-1.34-7.32-.03-13.55,4.74-19.97,4.34-5.84,2.83-7.99-.61-12.08-.72-.85-1.59-1.58-2.25-2.48-3.05-4.14-3.49-10.04-.27-14.64-1.4,12.18,2.32,17.57,14.62,20.14,1.27.5,1.88,2.03,3.06,2.77,2.5,1.58,2.97,2.38,5.69,3.4,4.92,1.86,9.4.37,10.76-2.15.1-2.18-2.12-6.18-.79-7.73,3.01-3.51,4.42-7.13,4.1-11.79-.17-2.47.9-5.03,1.46-7.54.43-1.94,1.81-4.03,1.17-5.74-.61-1.62-3.14-1.53-4.73-1.35-6.73,1.23-7.66-1.68-10.81-4.88-4.08-4.14-8.84-7.66-13.54-11.13-3.02-2.23-6.45-2.7-10.32-1.55-11.25,3.34-22.47,3.42-33.78-.39-3.11-1.05-6.98-.37-10.33-.03-8.75.91-18.09,5.36-23.09,8.73-4.58,3.09-8.56,8.21-11.79,12.7-5.64,7.85-4.97,15.32-6.29,25.88-.12.95-.25,1.9-.39,2.85l3.15-2.57-4.8,11.57c-1.03,4.78-2.27,9.53-3.66,14.19-1.4,4.7-3.69,8.3.93,11.42l-30.37,4.05h172.12Zm-43.66-71.78s1.62-.28,4.49,2.18c-3.8-1.81-5.11-2.73-5.7,2.91-.68-1.8-.28-4.83,1.2-5.09Zm-84.21,60.58c4.07-4.93,8.65-12.44,13.15-17.47.68-.76,1.72-6.09,1.52-7.1,0,0,5.23,11.74,17.84,11.92,10.84,0,21.63-6.16,21.63-6.16,2.96-2.96,1.96-1.72,2.15-2.03-.13.31-.38,1.12-.45,2.64-.32,7.47,1.53,18.54,3.58,25.3-4.41.83-13.04,5.7-13.91-.57-.44-3.18-7.34-1.73-9.13-4.83-.46-.8,1.82-2.23,1.77-3.26-.14-2.62-.03-5.72-.03-8.27-5.13-.55-9.03-4.17-13.64-4.57-.67-.06-7.59-4.32-7.39-3.68,2.15,6.75,7.67,18.73,7.34,26.01-8.28-.98-16.94,5.4-19.18-2.45-.93-3.25-7-3.39-5.26-5.5Z"/><path class="cls-7" d="m287.81,139.76H111.95c-.11,0-.2-.09-.21-.2l-.12-1.84c0-.11.07-.21.18-.22l27.41-3.65c.16-.02.23-.2.13-.33-1.92-2.66-.9-5.65.09-8.56.23-.68.47-1.38.69-2.11,1.44-4.84,2.67-9.59,3.63-14.11l.06-.19,3.09-7.47-1.95,1.58.42-2.86c.14-.94.27-1.88.39-2.82.28-2.24.47-4.34.65-6.36.66-7.31,1.23-13.62,5.84-20.04,3.34-4.64,7.38-9.81,12.07-12.98,5.63-3.8,15.12-8.03,23.6-8.92.47-.05.95-.1,1.43-.16,3.03-.35,6.46-.74,9.37.24,10.83,3.65,21.66,3.78,33.1.38,4.25-1.26,8.05-.68,11.31,1.72,4.66,3.44,9.47,6.99,13.67,11.25.56.57,1.05,1.13,1.52,1.66,2.09,2.38,3.36,3.81,8.29,2.9,3.34-.39,5.33.31,5.98,2.06.58,1.55-.02,3.19-.56,4.63-.23.62-.45,1.2-.57,1.75-.17.74-.37,1.49-.58,2.24-.49,1.76-.96,3.42-.85,4.98.33,4.81-1.02,8.69-4.37,12.6-.42.5.09,2.36.43,3.59.35,1.25.67,2.44.63,3.46v.25s-.13.22-.13.22c-1.59,2.97-6.57,4.78-12.14,2.67-1.96-.74-2.86-1.38-3.99-2.2-.52-.37-1.11-.8-1.91-1.3-.67-.42-1.17-1.01-1.6-1.53-.41-.48-.77-.91-1.16-1.1-.02,0-.04-.02-.06-.02-3.8-.81-6.84-1.89-9.19-3.36-.2-.12-.41.12-.27.31,2.58,3.39,3.33,6.19-.77,11.71-4.46,6-5.85,11.89-4.54,19.1.2,1.08,1.23,1.42,3.54,1.94,2.77.62,6.57,1.48,7.08,6.33.05.46.22.78.55,1.05,1.7,1.38,8.05-1.64,12.56-2.12,3.24-.35,6.36,1.25,8.94,1.5.46.04,3.17-1.2,5.11-1.12,10.5.46,14.26,2.65,15.6,3.31l3.53,1.73c.2.1.13.4-.09.4Zm-114.44-30.93c-.13-.01-.25.1-.24.23.25,2.46,7.69,14.61,7.85,17.4.17,2.92.34,5.95.59,8.83l.12,1.37-1.37-.16c-2.8-.33-5.65.24-8.41.78-.39.08-.78.15-1.16.23h69.22c.18,0,.27-.2.16-.35-.42-.54-.67-1.18-.74-1.92-.32-3.03-2.23-3.67-5.34-4.38-2.23-.5-4.77-1.07-5.25-3.73-1.44-7.87.08-14.3,4.94-20.84,3.95-5.32,2.63-6.89-.57-10.68-.29-.34-.6-.66-.91-.97-.47-.48-.96-.98-1.39-1.56-3.51-4.76-3.63-11.17-.28-15.95l2.06-2.95c.13-.18.41-.07.38.15l-.41,3.58c-1.35,11.71,2.12,16.48,13.73,18.91l.18.05c.96.38,1.6,1.13,2.16,1.79.37.43.71.84,1.09,1.08.85.54,1.47.99,2.02,1.38,1.07.77,1.78,1.28,3.47,1.92,4.02,1.52,7.87.55,9.19-1.34.03-.04.05-.09.04-.15-.05-.66-.3-1.56-.54-2.43-.58-2.09-1.18-4.25.03-5.65,2.94-3.43,4.12-6.81,3.83-10.98-.13-1.95.41-3.88.93-5.74.2-.71.4-1.42.56-2.13.15-.7.41-1.38.65-2.04.44-1.18.85-2.29.56-3.06-.23-.62-1.56-.86-3.55-.63-6.12,1.12-8.06-1.09-10.31-3.64-.44-.5-.9-1.03-1.43-1.56-4.07-4.13-8.82-7.63-13.4-11.02-2.7-1.99-5.75-2.44-9.34-1.37-11.91,3.53-23.18,3.4-34.46-.41-2.44-.82-5.47-.47-8.4-.13-.49.06-.98.11-1.46.16-8.1.84-17.18,4.9-22.58,8.54-4.4,2.97-8.28,7.95-11.5,12.43-4.25,5.92-4.77,11.66-5.43,18.93-.17,1.9-.35,3.85-.6,5.95l.34.19,3.34-2.71c.17-.14.41.04.33.24l-6.13,14.8s0,.02-.01.03c-.98,4.54-2.2,9.3-3.65,14.16-.23.76-.47,1.49-.71,2.19-1.34,3.94-1.85,5.93,1.19,7.98l1.99,1.34c.16.11.1.36-.09.38l-12.83,1.71c-.26.03-.24.42.03.42h30.85c.21,0,.29-.27.11-.39-1.14-.72-2.05-1.93-2.61-3.88-.32-1.12-1.73-1.82-2.98-2.44-1.27-.63-2.36-1.17-2.6-2.28-.09-.42-.07-1.07.53-1.8h0c1.75-2.13,3.59-4.72,5.54-7.47,2.49-3.51,5.06-7.14,7.63-10.01.01-.01.02-.02.03-.03.48-.77,1.36-5.3,1.25-6.13l-.87-6.3c-.03-.24.3-.34.4-.12l2.6,5.76c.2.45,5.11,11.08,16.83,11.26h0c9.71,0,19.57-5.2,20.9-5.93.02-.01.03-.02.05-.04,2.37-2.38,5.8-8.11,6.64-7.36l-2.21,4.94s0,.01,0,.02l-.64,1.91c-.09.29-.25.94-.3,2.08-.32,7.58,1.58,18.5,3.53,24.92l.36,1.2-1.23.23c-2.75.52-9.7,1.65-12.96.56-2.02-.68-.6-2.97-2.33-4.14-2.75-1.86-6.57-.68-8.45-3.92-.45-.77.07-1.55.29-3.28.21-1.72.46-2.78.56-3.66.28-2.43.79-3.02.79-3.4,0,0-8.11-1.16-12.89-3.6m13.75,11.18c.11,2.05-1.62,2.57.91,3.33,2.77.83,4.09.83,5.81,1.7,4.43,2.23.4,5,12.66,3.3.12-.02.2-.14.17-.26-1.82-6.58-3.47-16.59-3.23-23.85h0c-.45.26-11.17,6.31-22.18,6.31h0c-8.81-.13-14.16-5.47-16.81-9.16-.11-.15-.33-.1-.37.08-.35,1.69-.75,2.41-1.19,3.17-1.85,3.24-5.18,7.07-7.63,10.54-1.95,2.75-3.8,5.36-5.59,7.54.29.21.87.5,1.29.71,1.5.74,3.54,1.76,4.13,3.83,1.1,3.86,3.74,3.52,9.12,2.46,2.32-.46,4.91-.97,7.53-.92.12,0,.22-.1.21-.22-.19-2.44-.33-4.93-.47-7.36-.16-2.88-8.81-15.41-9.03-17.95-.06-.65.17-1.28.63-1.74.46-.46,1.15-.9,1.75-.64,2.31.99,13.17,7.71,15.35,8.46,2.14.75,4.16.22,6.61.49l1.53-.04-.34,2.45m44.47-41.74c-.02.22-.33.26-.41.05l-1.36-3.59c-.62-1.63-.5-3.88.27-5.23.55-.96,1.27-1.27,1.79-1.36h0c.36-.06,2.29-.24,5.42,2.43l5.23,4.47c.19.16,0,.46-.23.35l-6.74-3.21c-1.04-.5-2.46-1.18-2.75-1.02-.09.05-.52.43-.82,3.28l-.4,3.82Z"/><path class="cls-7" d="m257.7,101.25s7.06-1.45,7.06,0-.75,3.99-3.25,3.79,3.04-2.75,1.38-2.85-5.19-.93-5.19-.93Z"/><path class="cls-7" d="m208.78,60.43c3.28-5.63,11.43-7.78,17.54-8.19-6.11,2.45-12.25,3.43-17.26,7.91l-.28.28Z"/><path class="cls-6" d="m152.68,124.92c-.73.66-.31,1.93.09,2.77.15.32-.15.81-.47.75l-4.3-.76s-1.04,1.26,3.24,2.43c2.71.74,6.09,2.52,6.63,3.17.38.46.53,2.01.79,2.01h1.66c.84.06.99.24.38-.71-.27-.42-.47-1.15-.51-1.32-.23-.99-1.61-1.73-1.83-1.87-1.36-.83-2.47-.99-3.39-2.1s.04-2.43.04-2.43c0,0,1.19-1.36,3.77-4.99,1.55-2.17,3.2-4.58,6.16-8.55,1.1-1.47,2-2.52,2.15-2.71.04-.05,1.2-1.36,1.24-1.42,1.43-2.42,1.35-5.26,1.24-6.07-.37-2.73-.5-3.93-.6-4.45-.34-1.72.12-4.63-5.07-6.27-.5-.16,4.44,1.18,2.86,10.17-.06.32-.5.39-.63.09-.55-1.27-1.71-3.36-3.73-4.52-1.66-.95,11.37,7.67-9.71,26.78Z"/><path class="cls-6" d="m243.36,96.15c-5.53-1.43-9.05-4.43-10.51-8.45-1.91-5.24.19-13.48.19-13.48.45,9.92,2.01,14.83,4.8,16.88,2.45,1.8,9.41,3.34,10.14,3.69.8.38,1.61,2.67,5.73,5.86,4.2,3.26,7.52,2.9,7.52,2.9,0,0-.09.14-1.24.2s-2.01.05-3.98-.46c-.76-.2-1.39-.52-1.39-.52l-.58-.25-.66-.34-.78-.48-.57-.39-.91-.66-.96-.65-.59-.38-.5-.47-.43-.52-1.07-1.12-.76-.51s-.45-.19-.52-.19-2.89-.64-2.92-.65Z"/><path class="cls-6" d="m235.76,135.97s2.87-3.86-7.48-5.19c-6.41-.83-1.3-2.09-1.3-2.09,0,0-1.9-12.78,1.04-17.54,2.83-4.58,1.61-6.12,1.08-6.52-.92-.69-3.3-3.22-3.99-10.32-.02-.18.2-.3.34-.18.64.57,2.03,3.06,3.3,3.35,1.55.34,1.33-1.3.84-1.85-3.77-4.27-6.07-17.33,3.16-21.55,0,0-2.16,2.76-3.41,5.26-1.15,2.31-2.67,8.48,1.98,14.26.73.91,5.18,4.6,4.91,7.39-.25,2.59-2.19,4.93-2.19,4.93l-1.12,1.5s-1.54,2.64-2.85,5.29c-.99,1.98-1.99,6.2-1.74,10.58.06,1.12.19,2.35.44,3.43.44,1.87,1.32,2.65,1.95,3.04.4.24.71.38.71.38,0,0,1.06.33,2.02.57.21.05.42.11.6.15.03,0,.17.04.2.05,3.92.65,5.25,2.01,5.38,5.32l-3.88-.26Z"/><path class="cls-6" d="m171.14,101.13s.58,2.12,3.81,6.28c1.86,2.38,7.22,6.46,13.37,6.27,5.54-.17,10.15-1,15.48-3.32h0c1.41-.44,4.73-2.14,5.51-2.55.15-.08.28-.17.4-.29.35-.34.73-.88.73-.88l.69-.85.44-.57c1-1.28,1.46-1.85,1.68-2.21,0,0-28.59,19.22-42.12-1.87Z"/><path class="cls-6" d="m214.33,109.86c-.72,11.23,4.38,25.55,4.38,25.55h-1.83c-3.79-10.98-3.8-21.55-3.97-24.49-.24-4.16,1.68-7.28,2.6-9.24s.56-1.19.56-1.19"/><path class="cls-6" d="m148.85,88.73s3.94-16.84,17.66-25.57l-1.49,5.88s5.46-9.65,21.67-13.23c7.17-1.58,13.59-2.64,27.02-.1l1.86-.97s1.28-.58,2.49-.95c0,0-3.76.04-5.3-.06s-1.75-.12-1.75-.12l-1.66-.17-1.63-.22-.99-.16-.99-.18-.91-.18-.59-.12-.66-.15-.81-.19-.54-.14-.42-.1-.43-.11-.88-.25-.36-.1-.45-.13-.4-.12-1.08-.35-.54-.16-.27-.07-.42-.1-.26-.05-.21-.03s-.84-.13-1.4-.14-1.85-.08-4.37.22c-2.51.3-4.79.51-7.17,1.08-1.22.29-4.9,1.31-7.18,2.25-1.86.76-4.29,1.68-7.66,3.59s-6.18,3.93-8.96,7.17c-1.7,1.98-4.85,5.18-7.47,10.01-1.82,3.36-2.85,6.92-3.46,14.02Z"/><path class="cls-6" d="m231.26,53.28s.05.02.07.03c1.7.95,5.09,3.5-.31,2.11-3.02-.78-5.15-.74-6.11-.66h0c-1.18.25-4.94.34-10.31,1.8l.79-.36,1.14-.51,1.41-.5,1.68-.58,1.9-.65,1.94-.69s4.49-.52,8.55-1.85c3.98-1.3,6.81-.67,9.23.82,2.17,1.34,5.71,4.21,5.71,4.21l3.62,2.92,2.33,2.06,1.53,1.44,1.06,1.08.88.92,1.1,1.26s1.58,1.73,2.84,2.25c1.26.51,2.44,1.24,6.84.49,0,0-2.47,1.08-4.12,1.18-1.57.1-5.07.69-8.28-2.85-3.21-3.54-5.17-5.47-7.18-7.13,0,0-8.93-8.69-16.29-6.79Z"/><path class="cls-6" d="m240.24,71.4s.05-2.35.78-2.61c.71-.26,4.97,2.22,6.97,3.05,0,0-6.71-1.53-7.74-.44Z"/><path class="cls-6" d="m181.46,135.4l20.3.08s-.31-.78-.33-1c-.08-.96-.26-1.5-.55-1.91-.21-.3-.61-.75-2.14-1.27-.67-.23-1.5-.41-2.73-.7-3.41-.81-4.64-2.45-4.16-3.76s1.82-9.08,1.82-9.08c0,0-5.59-.7-10.58-2.5-4.99-1.8-7.62-4.29-9.09-5.74s-.58.6-.58.6l.65,1.54s2.77,5.49,3.52,6.97c.83,1.63,3.3,6.39,3.26,7.85-.04,1.59.88,8.96.6,8.94Z"/><path class="cls-6" d="m201.95,135.6h-.18s-20.31-.08-20.31-.08l-.05-.09c-.05,0-.03-.13-.03-.11.09-.23-.13-2.54-.3-4.39-.17-1.85-.35-3.76-.33-4.48.03-1.36-2.27-5.87-3.14-7.56l-.12-.23c-.75-1.47-3.52-6.97-3.52-6.97l-.66-1.55c-.17-.39-.41-1.08-.16-1.25.18-.12.45.03.94.51,1.26,1.25,3.9,3.86,9.04,5.71,4.92,1.77,10.5,2.49,10.55,2.5l.13.02-.02.13c-.06.32-1.36,7.8-1.83,9.1-.15.42-.11.88.13,1.32.54.99,1.94,1.8,3.95,2.27l.52.12c.96.22,1.65.39,2.22.58,1.46.5,1.93.94,2.2,1.32.33.46.5,1.05.58,1.98.01.15.2.68.32.97l.07.17Zm-20.32-.33l19.95.08c-.1-.25-.25-.69-.27-.87-.07-.88-.23-1.43-.53-1.85-.16-.22-.49-.69-2.08-1.23-.57-.19-1.25-.35-2.2-.58l-.52-.12c-2.08-.49-3.54-1.34-4.11-2.4-.27-.51-.32-1.03-.15-1.53.43-1.19,1.62-7.92,1.79-8.93-.87-.12-5.95-.86-10.48-2.49-5.19-1.87-7.85-4.5-9.13-5.77-.5-.49-.63-.48-.64-.48-.04.07.08.53.26.95l.65,1.54h0s2.77,5.49,3.52,6.96l.12.23c.96,1.87,3.2,6.26,3.16,7.68-.02.71.16,2.61.33,4.45.27,2.87.35,3.96.31,4.37Z"/></g><path class="cls-7" d="m358.88,211.55c0-.08.02-.16.02-.24v-68.94c0-.11-.02-.21-.03-.32.05-.72.53-6.17-3.49-7.18l-14.92-4,.4,5.51,8.36,2.65H50.72l8.05-2.55.4-5.51-14.92,4c-4.12,1.04-3.51,6.77-3.49,7.24,0,0,0,0,0,0,0,.05-.02.1-.02.16v68.94c0,.09.02.18.03.27-.06.83-.48,6.15,3.49,7.15l14.92,4-.4-5.51-8.12-2.58h298.24l-8.04,2.55-.4,5.51,14.92-4c3.98-1,3.55-6.35,3.49-7.16Z"/><g id="Yellow_strokes"><path class="cls-5" d="m64.04,218.3h272.85l14.01-3.72H48.67s15.37,4.11,15.37,3.72Z"/><path class="cls-5" d="m64.04,135.33h272.85l14.08,3.69-302.23.02s15.3-4.11,15.3-3.72Z"/></g><g id="BARE_text"><path class="cls-1" d="m95.46,161.24h-38.97l-7.79-11.69h46.77c12.99,0,19.49,5.2,19.49,15.59v3.9c0,4.03-.97,7.27-2.92,9.74,1.95,2.47,2.92,5.72,2.92,9.74,0,10.39-6.5,15.59-19.49,15.59h-19.49v-11.69h19.49c2.6,0,3.9-1.3,3.9-3.9s-1.3-3.9-3.9-3.9h-19.49v-11.69h19.49c2.6,0,3.9-1.3,3.9-3.9v-3.9c0-2.6-1.3-3.9-3.9-3.9Zm-23.38,42.87h-15.59v-38.97h15.59v38.97Z"/><path class="cls-1" d="m160.84,179.48l-12.51,24.63h-16.76l21.12-40.77,8.15,16.13Zm-5.77-20.73l8.07-15.55,31.57,60.91h-16.76l-22.88-45.36Z"/><path class="cls-1" d="m253.15,161.24h-38.97l-7.79-11.69h46.77c12.99,0,19.49,5.2,19.49,15.59v3.9c0,8.34-4.18,13.33-12.55,14.97l12.55,20.11h-19.49l-19.49-31.18h19.49c2.6,0,3.9-1.3,3.9-3.9v-3.9c0-2.6-1.3-3.9-3.9-3.9Zm-23.38,42.87h-15.59v-38.97h15.59v38.97Z"/><path class="cls-1" d="m350.95,161.24h-54.56l-7.79-11.69h62.36v11.69Zm-54.56,3.9h15.59v27.28h38.97v11.69h-54.56v-38.97Zm54.56,19.49h-23.38l-11.69-11.69h35.08v11.69Z"/></g><text class="cls-2" transform="translate(96.94 246.97)"><tspan x="0" y="0">Outdoor Services</tspan></text><g id="Est.2021"><line class="cls-3" x1="162.31" y1="260.12" x2="237.31" y2="260.12"/><line class="cls-3" x1="162.31" y1="280.81" x2="237.31" y2="280.81"/><path class="cls-1" d="m162.47,264.3h2.01v12.22h-2.01v-12.22Zm.83,0h7.18v1.92h-7.18v-1.92Zm0,5.19h6.26v1.92h-6.26v-1.92Zm0,5.1h7.18v1.92h-7.18v-1.92Z"/><path class="cls-1" d="m174.99,276.47c-.54-.11-1.05-.28-1.52-.51-.47-.22-.91-.5-1.3-.83l1.07-1.6c.47.4,1,.7,1.58.9.58.2,1.21.31,1.86.31.82,0,1.45-.15,1.9-.44.45-.29.68-.7.68-1.24h0c0-.38-.1-.68-.3-.9-.2-.22-.46-.38-.79-.49-.33-.1-.74-.2-1.25-.29-.02,0-.03,0-.05,0s-.03,0-.05,0l-.15-.03c-.82-.13-1.49-.29-2.02-.48s-.97-.52-1.34-.99-.55-1.15-.55-2.03h0c0-.78.17-1.44.52-1.99s.85-.97,1.51-1.25,1.46-.43,2.39-.43c.44,0,.88.05,1.32.15.44.1.87.24,1.29.43.42.19.83.42,1.23.7l-.97,1.66c-.47-.34-.95-.59-1.44-.76-.49-.17-.96-.26-1.43-.26-.77,0-1.37.14-1.79.42-.42.28-.63.68-.63,1.2h0c0,.39.11.7.33.92s.49.39.82.49c.33.1.79.21,1.37.33.02,0,.04,0,.06.01.02,0,.04,0,.06.01.03,0,.06.01.09.02s.06.01.09.02c.76.15,1.39.33,1.89.55.51.21.93.55,1.27,1.03.34.47.51,1.11.51,1.92v.02c0,.76-.18,1.41-.54,1.96-.36.54-.88.96-1.56,1.24-.68.28-1.51.42-2.47.42-.59,0-1.15-.06-1.69-.17Z"/><path class="cls-1" d="m182.02,264.3h8.79v1.92h-8.79v-1.92Zm3.39,1h2v11.22h-2v-11.22Z"/><path class="cls-1" d="m197.9,268.71h0c.96,0,1.74.78,1.74,1.74h0c0,.96-.78,1.74-1.74,1.74h0c-.96,0-1.74-.78-1.74-1.74h0c0-.96.78-1.74,1.74-1.74Z"/><path class="cls-1" d="m205.06,274.74l4.23-5.6c.22-.29.39-.58.51-.89.12-.31.18-.59.18-.85v-.02c0-.41-.13-.73-.37-.95-.25-.22-.6-.34-1.06-.34s-.8.14-1.07.41c-.27.27-.43.66-.49,1.16h0s-2.07,0-2.07,0h0c.08-.74.28-1.37.59-1.89.31-.52.73-.92,1.24-1.19.52-.27,1.11-.41,1.78-.41.75,0,1.38.12,1.91.37.53.25.93.61,1.2,1.09.28.48.42,1.05.42,1.72h0c0,.5-.09,1-.28,1.51-.19.51-.45.98-.78,1.42l-3.28,4.3h4.4v1.92h-7.06v-1.78Z"/><path class="cls-1" d="m215.22,275.73c-.61-.61-.91-1.46-.91-2.55v-5.55c0-1.1.31-1.95.92-2.56.61-.61,1.5-.91,2.66-.91s2.05.3,2.66.91c.61.6.91,1.46.91,2.56v5.55c0,1.1-.31,1.95-.92,2.56-.61.61-1.5.91-2.66.91s-2.05-.31-2.66-.92Zm3.84-1.48c.25-.32.38-.77.38-1.37v-4.97c0-.59-.13-1.05-.38-1.37-.25-.32-.65-.48-1.19-.48s-.93.16-1.18.48c-.25.32-.38.77-.38,1.37v4.97c0,.59.13,1.05.38,1.37.25.32.65.47,1.18.47s.93-.16,1.19-.47Z"/><path class="cls-1" d="m223.79,274.74l4.23-5.6c.22-.29.39-.58.51-.89.12-.31.18-.59.18-.85v-.02c0-.41-.12-.73-.37-.95s-.6-.34-1.06-.34-.8.14-1.07.41c-.27.27-.44.66-.49,1.16h0s-2.07,0-2.07,0h0c.08-.74.27-1.37.59-1.89.31-.52.73-.92,1.24-1.19.51-.27,1.11-.41,1.78-.41.74,0,1.38.12,1.91.37.53.25.93.61,1.21,1.09.28.48.42,1.05.42,1.72h0c0,.5-.09,1-.28,1.51-.19.51-.45.98-.78,1.42l-3.28,4.3h4.4v1.92h-7.06v-1.78Z"/><path class="cls-1" d="m236.16,276.52h-2.01v-9.93l-1.61.82v-2.11l1.78-.99h1.84v12.22Z"/></g><rect class="cls-4" x="40.59" y="5.17" width="318.44" height="320.44"/><rect class="cls-4" x="66.88" y="204.58" width="52.44" height="10"/></svg>